
<svg width="38" height="24" viewBox="0 0 38 24" fill="none" xmlns="http://www.w3.org/2000/svg">
<path d="M26.375 8.18182V5.11364C25.1875 5.11364 22.4468 4.92136 21.0241 7.38L16.0153 16.0333C14.8099 18.1156 12.3411 19.4318 9.63837 19.4318H5V17.3864H9.63837C11.4398 17.3864 13.0857 16.5089 13.8896 15.12L18.8985 6.4667C20.5088 3.68386 23.2614 3.06818 26.375 3.06818V0L33.5 4.09091L26.375 8.18182ZM15.1377 9.53591L16.4641 7.24295C14.9976 4.70761 13.0216 3.06818 9.63837 3.06818H5V5.11364H9.63837C13.0489 5.11364 13.9656 7.50989 15.1377 9.53591ZM33.5 18.4091L26.375 14.3182V17.3864C21.8862 17.3864 21.6024 16.1202 19.7773 12.9661L18.4496 15.2581C19.6621 17.3536 20.9434 19.4318 26.375 19.4318V22.5L33.5 18.4091Z" fill="white"/>
</svg>
