<svg width="214" height="46" viewBox="0 0 214 46" fill="none" xmlns="http://www.w3.org/2000/svg">
<path fill-rule="evenodd" clip-rule="evenodd" d="M214 22L-1.74839e-07 22L0 23L214 23L214 22Z" fill="white"/>
<path d="M141.005 22.4999C141.008 34.9263 125.787 45.0032 107.01 45.0073C88.2321 45.0114 73.0076 34.9411 73.0049 22.5146C73.0022 10.0882 88.2223 0.0113516 107 0.00728471C125.778 0.00321783 141.002 10.0735 141.005 22.4999Z" fill="white"/>
<path d="M106.294 22.99C106.294 24.2439 106.083 25.3396 105.661 26.2772C105.24 27.2089 104.642 27.921 103.869 28.4133C103.096 28.9057 102.193 29.152 101.162 29.1522C100.154 29.1524 99.2606 28.9065 98.4812 28.4145C97.7018 27.9166 97.0952 27.2107 96.6614 26.2967C96.2335 25.3769 96.0135 24.3135 96.0015 23.1064L96.0013 22.1836C96.0011 20.9531 96.2147 19.8662 96.6422 18.9227C97.0698 17.9793 97.6731 17.2584 98.4523 16.7602C99.2374 16.2561 100.134 16.004 101.142 16.0038C102.167 16.0035 103.069 16.2524 103.849 16.7503C104.634 17.2423 105.238 17.9599 105.66 18.9032C106.082 19.8406 106.293 20.9333 106.293 22.1814L106.294 22.99ZM104.615 22.1642C104.614 20.6466 104.309 19.4836 103.7 18.6751C103.09 17.8608 102.238 17.4537 101.142 17.454C100.076 17.4542 99.2348 17.8616 98.6197 18.6762C98.0105 19.4849 97.6973 20.61 97.68 22.0514L97.6802 22.9918C97.6805 24.4625 97.9884 25.6197 98.6038 26.4633C99.2251 27.3011 100.078 27.7198 101.162 27.7196C102.252 27.7193 103.095 27.3237 103.693 26.5325C104.29 25.7355 104.598 24.5958 104.615 23.1134L104.615 22.1642Z" fill="black"/>
<path d="M113.518 23.797L110.512 23.7976L110.514 28.9744L108.817 28.9748L108.814 16.1779L113.051 16.177C114.492 16.1767 115.6 16.5045 116.373 17.1606C117.153 17.8167 117.543 18.7717 117.543 20.0256C117.543 20.8225 117.326 21.5169 116.893 22.1088C116.465 22.7006 115.868 23.1432 115.1 23.4363L118.107 28.8673L118.107 28.9728L116.297 28.9731L113.518 23.797ZM110.512 22.4178L113.105 22.4172C113.943 22.417 114.608 22.2001 115.1 21.7664C115.598 21.3327 115.847 20.7525 115.847 20.026C115.846 19.235 115.609 18.6286 115.134 18.2068C114.665 17.785 113.986 17.5713 113.095 17.5656L110.511 17.5662L110.512 22.4178Z" fill="black"/>
</svg>
