<svg width="113" height="111" viewBox="0 0 113 111" fill="none" xmlns="http://www.w3.org/2000/svg">
<ellipse cx="56.5" cy="55.5" rx="56.5" ry="55.5" fill="#C4C4C4"/>
<path d="M56.5006 23.7856C38.6696 23.7856 24.2148 37.9846 24.2148 55.4999C24.2148 73.0153 38.6696 87.2142 56.5006 87.2142C74.3315 87.2142 88.7863 73.0153 88.7863 55.4999C88.7863 37.9846 74.3315 23.7856 56.5006 23.7856ZM56.5006 29.9239C70.8901 29.9239 82.5374 41.3629 82.5374 55.4999C82.5374 59.9092 81.404 64.0563 79.4078 67.6758C77.6629 64.3006 74.5226 61.5961 70.6354 60.4413C72.4078 57.7773 73.3594 54.6646 73.3594 51.4078C73.3594 42.2555 65.8193 34.8473 56.5006 34.8473C47.1834 34.8473 39.6417 42.254 39.6417 51.4078C39.6417 54.6646 40.5933 57.7773 42.3657 60.4413C38.4834 61.5946 35.3407 64.2959 33.5932 67.6758C31.5971 64.0565 30.4637 59.9095 30.4637 55.4999C30.4637 41.3652 42.1088 29.9239 56.5006 29.9239ZM46.0858 51.4078C46.0858 45.7576 50.7486 41.1773 56.5006 41.1773C62.2525 41.1773 66.9153 45.7576 66.9153 51.4078C66.9153 57.0579 62.2525 61.6382 56.5006 61.6382C50.7486 61.6382 46.0858 57.0579 46.0858 51.4078ZM38.2843 73.7795C38.482 69.4318 42.1317 65.9664 46.6065 65.9664H48.4514C53.4423 68.6377 59.5609 68.6367 64.5499 65.9664H66.3946C70.8694 65.9664 74.5191 69.4318 74.7169 73.7795C64.5955 83.513 48.3993 83.5067 38.2843 73.7795V73.7795Z" fill="#18A9C8"/>
</svg>
