<svg width="27" height="34" viewBox="0 0 27 34" fill="none" xmlns="http://www.w3.org/2000/svg">
<path d="M9.27181 8.40837C10.8906 8.40837 12.2028 7.09612 12.2028 5.47738C12.2028 3.85864 10.8906 2.54639 9.27181 2.54639C7.65307 2.54639 6.34082 3.85864 6.34082 5.47738C6.34082 7.09612 7.65307 8.40837 9.27181 8.40837Z" fill="white"/>
<path d="M26.4281 25.9561C26.3146 25.3898 24.9872 25.1648 23.3292 25.3854L20.0553 9.05626L21.0463 9.77017C21.3701 10.0035 21.8217 9.93009 22.0549 9.60634C22.2881 9.28253 22.2148 8.83102 21.891 8.59774L20.4594 7.56629L20.7686 6.95464C21.1209 6.25761 20.8417 5.40686 20.1446 5.05444C19.4475 4.70217 18.5968 4.98138 18.2444 5.67847L18.1362 5.89243L17.254 5.25682C17.3391 4.68949 17.1129 4.09583 16.6155 3.73743C15.9066 3.22672 14.9179 3.3873 14.4071 4.0962C13.8963 4.80509 14.057 5.79379 14.7659 6.30457C15.2634 6.66304 15.8981 6.68958 16.4093 6.42925L17.4762 7.19794L16.4922 9.14422L12.9621 8.98622C12.5972 8.96992 12.2316 8.98843 11.8702 9.04159L7.81432 9.63842L4.38448 6.68096L2.77485 1.02741C2.56089 0.27619 1.77841 -0.159469 1.02741 0.0544161C0.276123 0.268375 -0.159464 1.0507 0.0544215 1.80185L1.78003 7.86275C1.85575 8.12846 2.00756 8.36616 2.21672 8.54658L6.56588 12.2966L8.11417 21.8597L8.1374 21.8559L8.66809 26.4854L5.07686 31.286C4.5155 32.0365 4.66878 33.1 5.41926 33.6616C6.17011 34.2232 7.23349 34.0694 7.79478 33.3192L11.79 27.9787C12.0493 27.6319 12.1664 27.1991 12.1171 26.7689L11.4917 21.313L12.1882 21.2002L15.5667 25.3974L14.2075 31.9584C14.0174 32.8762 14.6073 33.7744 15.525 33.9645C16.4428 34.1547 17.3409 33.5648 17.5311 32.647L19.0528 25.3015C19.1556 24.8048 19.031 24.2882 18.713 23.8931L15.3569 19.7237L14.0851 11.8679L17.2789 12.0108C17.8506 12.0355 18.3599 11.7194 18.6042 11.2361L18.9011 10.649L21.9125 25.6696C20.2975 26.1051 19.1595 26.8244 19.273 27.3908C19.4024 28.0363 21.1091 28.2386 23.085 27.8424C25.0608 27.4461 26.5576 26.6016 26.4281 25.9561Z" fill="white"/>
</svg>
