<svg width="22" height="34" viewBox="0 0 22 34" fill="none" xmlns="http://www.w3.org/2000/svg">
<path d="M15.6923 11.7692L21.3341 5.60437C21.4858 5.44446 21.5296 5.21054 21.4462 5.00658C21.3484 4.80548 21.1466 4.67575 20.9231 4.67032H2.80222C2.80222 4.67032 2.57802 4.67032 2.57802 4.70765V4.03513C3.53581 3.88251 4.21756 3.02227 4.14726 2.05489C4.14747 0.934479 3.25004 0.020382 2.1297 4.21805e-07C0.982107 -0.000714722 0.0402626 0.908018 0 2.05497C0.0383317 2.94975 0.614237 3.73241 1.4571 4.0352V33.4395C1.4571 33.7491 1.70805 34 2.01756 34C2.32708 34 2.57802 33.7491 2.57802 33.4395V18.8681H20.923C21.1523 18.8831 21.3646 18.7467 21.4461 18.5319C21.5205 18.3271 21.4775 18.098 21.334 17.9341L15.6923 11.7692Z" fill="white"/>
</svg>
