<svg width="34" height="34" viewBox="0 0 34 34" fill="none" xmlns="http://www.w3.org/2000/svg">
<path d="M32.7851 0H19.4284C19.1064 7.11476e-05 18.7976 0.128066 18.5699 0.355809L0.356138 18.5696C-0.118345 19.0435 -0.118772 19.8123 0.355213 20.2868L0.356138 20.2877L13.7129 33.6445C14.1871 34.1185 14.9557 34.1185 15.4298 33.6445L33.6436 15.4307C33.8716 15.2027 33.9996 14.8935 33.9994 14.571V1.21428C33.9994 0.543639 33.4558 0 32.7851 0ZM25.4996 10.9283C24.1584 10.9283 23.0711 9.84099 23.0711 8.49979C23.0711 7.15858 24.1584 6.07131 25.4996 6.07131C26.8408 6.07131 27.9281 7.15858 27.9281 8.49979C27.9281 9.84099 26.8408 10.9283 25.4996 10.9283Z" fill="white"/>
</svg>
