<svg width="34" height="34" viewBox="0 0 34 34" fill="none" xmlns="http://www.w3.org/2000/svg">
<path d="M33.0869 14.7884L33.0843 14.7858L19.2136 0.916977C18.6224 0.325546 17.8363 0 17.0002 0C16.1641 0 15.378 0.325546 14.7865 0.916977L0.923071 14.7788C0.918402 14.7834 0.913472 14.7884 0.909062 14.793C-0.30505 16.014 -0.302974 17.9951 0.915029 19.2129C1.4715 19.7696 2.20619 20.0918 2.99199 20.1258C3.02416 20.1289 3.05633 20.1304 3.08876 20.1304H3.64133V30.3368C3.64133 32.3567 5.28505 34 7.3052 34H12.7319C13.2821 34 13.7281 33.5538 13.7281 33.0039V25.002C13.7281 24.0803 14.4781 23.3306 15.3998 23.3306H18.6006C19.5223 23.3306 20.2721 24.0803 20.2721 25.002V33.0039C20.2721 33.5538 20.718 34 21.2683 34H26.6949C28.7153 34 30.3588 32.3567 30.3588 30.3368V20.1304H30.8714C31.7073 20.1304 32.4934 19.8049 33.0851 19.2132C34.3044 17.9935 34.3049 16.0088 33.0869 14.7884ZM31.6762 17.8047C31.4611 18.0197 31.1752 18.1382 30.8714 18.1382H29.3626C28.8124 18.1382 28.3664 18.5842 28.3664 19.1343V30.3368C28.3664 31.2581 27.6167 32.0078 26.6949 32.0078H22.2645V25.002C22.2645 22.982 20.621 21.3385 18.6006 21.3385H15.3998C13.3794 21.3385 11.7357 22.982 11.7357 25.002V32.0078H7.3052C6.38372 32.0078 5.63372 31.2581 5.63372 30.3368V19.1343C5.63372 18.5842 5.18777 18.1382 4.63753 18.1382H3.15465C3.13909 18.1372 3.12378 18.1364 3.10795 18.1362C2.81117 18.131 2.53281 18.0132 2.32423 17.8044C1.88061 17.3608 1.88061 16.6389 2.32423 16.1951L2.32553 16.1938L16.1957 2.32552C16.4105 2.11047 16.6961 1.99219 17.0002 1.99219C17.304 1.99219 17.5896 2.11047 17.8047 2.32552L31.6718 16.1909C31.6738 16.193 31.6762 16.1951 31.6782 16.1972C32.1195 16.6415 32.1187 17.3619 31.6762 17.8047Z" fill="white"/>
</svg>
