<svg width="63" height="21" viewBox="0 0 63 21" fill="none" xmlns="http://www.w3.org/2000/svg">
<path d="M10.4609 17H8.24609V11.3135H2.52441V17H0.300781V4.20312H2.52441V9.5293H8.24609V4.20312H10.4609V17ZM12.4912 12.1572C12.4912 11.2139 12.6729 10.373 13.0361 9.63477C13.4053 8.89062 13.9238 8.31934 14.5918 7.9209C15.2598 7.5166 16.0273 7.31445 16.8945 7.31445C18.2129 7.31445 19.2764 7.75098 20.085 8.62402C20.3955 8.5127 20.6211 8.30176 20.7617 7.99121C20.9023 7.68066 20.9727 7.19141 20.9727 6.52344H22.4404C22.4404 7.30859 22.3115 7.96484 22.0537 8.49219C21.7959 9.01367 21.3652 9.38281 20.7617 9.59961C21.1309 10.332 21.3213 11.1611 21.333 12.0869V12.3418C21.333 13.2793 21.1514 14.1172 20.7881 14.8555C20.4307 15.5938 19.9121 16.165 19.2324 16.5693C18.5586 16.9736 17.7852 17.1758 16.9121 17.1758C15.582 17.1758 14.5127 16.7334 13.7041 15.8486C12.8955 14.9639 12.4912 13.7686 12.4912 12.2627V12.1572ZM14.6182 12.3418C14.6182 13.3203 14.8203 14.0879 15.2246 14.6445C15.6289 15.1953 16.1914 15.4707 16.9121 15.4707C17.6328 15.4707 18.1924 15.1895 18.5908 14.627C18.9951 14.0645 19.1973 13.2412 19.1973 12.1572C19.1973 11.1787 18.9893 10.4141 18.5732 9.86328C18.1631 9.30664 17.6035 9.02832 16.8945 9.02832C16.1973 9.02832 15.6436 9.30664 15.2334 9.86328C14.8232 10.4141 14.6182 11.2402 14.6182 12.3418ZM15.6465 19.1973C15.6465 18.8867 15.749 18.626 15.9541 18.415C16.165 18.21 16.4639 18.1074 16.8506 18.1074C17.2373 18.1074 17.5361 18.21 17.7471 18.415C17.958 18.626 18.0635 18.8867 18.0635 19.1973C18.0635 19.5078 17.958 19.7656 17.7471 19.9707C17.5361 20.1758 17.2373 20.2783 16.8506 20.2783C16.4639 20.2783 16.165 20.1758 15.9541 19.9707C15.749 19.7656 15.6465 19.5078 15.6465 19.1973ZM31.6074 12.3418C31.6074 13.8125 31.2734 14.9873 30.6055 15.8662C29.9375 16.7393 29.041 17.1758 27.916 17.1758C26.873 17.1758 26.0381 16.833 25.4111 16.1475V20.6562H23.2754V7.49023H25.2441L25.332 8.45703C25.959 7.69531 26.8115 7.31445 27.8896 7.31445C29.0498 7.31445 29.958 7.74805 30.6143 8.61523C31.2764 9.47656 31.6074 10.6748 31.6074 12.21V12.3418ZM29.4805 12.1572C29.4805 11.208 29.29 10.4551 28.9092 9.89844C28.5342 9.3418 27.9951 9.06348 27.292 9.06348C26.4189 9.06348 25.792 9.42383 25.4111 10.1445V14.3633C25.7979 15.1016 26.4307 15.4707 27.3096 15.4707C27.9893 15.4707 28.5195 15.1982 28.9004 14.6533C29.2871 14.1025 29.4805 13.2705 29.4805 12.1572ZM45.2744 14.0205H40.3174L39.2803 17H36.9688L41.8027 4.20312H43.7979L48.6406 17H46.3203L45.2744 14.0205ZM40.9414 12.2275H44.6504L42.7959 6.91895L40.9414 12.2275ZM45.8633 3.20996V3.30664H44.1494L42.8311 1.93555L41.5215 3.30664H39.8252V3.19238L42.207 0.766602H43.4639L45.8633 3.20996ZM51.4795 7.49023L51.541 8.4834C52.209 7.7041 53.123 7.31445 54.2832 7.31445C55.5547 7.31445 56.4248 7.80078 56.8936 8.77344C57.585 7.80078 58.5576 7.31445 59.8115 7.31445C60.8604 7.31445 61.6396 7.60449 62.1494 8.18457C62.665 8.76465 62.9287 9.62012 62.9404 10.751V17H60.8047V10.8125C60.8047 10.209 60.6729 9.7666 60.4092 9.48535C60.1455 9.2041 59.709 9.06348 59.0996 9.06348C58.6133 9.06348 58.2148 9.19531 57.9043 9.45898C57.5996 9.7168 57.3857 10.0566 57.2627 10.4785L57.2715 17H55.1357V10.7422C55.1064 9.62305 54.5352 9.06348 53.4219 9.06348C52.5664 9.06348 51.96 9.41211 51.6025 10.1094V17H49.4668V7.49023H51.4795Z" fill="white"/>
</svg>
