<svg width="34" height="34" viewBox="0 0 34 34" fill="none" xmlns="http://www.w3.org/2000/svg">
<rect width="34" height="34" fill="black"/>
<path d="M24.5541 21.3743C25.2075 19.724 25.0041 17.907 24.0226 16.6325C23.0583 15.3789 21.5386 14.6749 19.9554 14.76C19.9323 14.7608 19.9095 14.7626 19.8871 14.7637V12.2426C22.6193 10.2259 24.3775 8.3454 24.3775 5.77221V3.52681C24.3775 1.93518 23.0829 0.640137 21.4909 0.640137C19.8989 0.640137 18.6042 1.93518 18.6042 3.52681V11.5911C17.7295 12.2129 16.749 12.8667 15.6823 13.5781C13.3774 15.1146 12.1209 18.1713 12.695 20.8458C13.1774 23.093 14.8252 24.6105 17.2159 25.0088C17.7019 25.0899 18.1648 25.1299 18.6042 25.1339V29.1872C18.6042 30.7792 17.3092 32.0742 15.7172 32.0742C14.5645 32.0742 13.5536 31.4025 13.0918 30.375C13.931 30.0215 14.5212 29.1912 14.5212 28.2251C14.5212 26.9388 13.4751 25.8927 12.1888 25.8927C10.9026 25.8927 9.85645 26.9388 9.85645 28.2251C9.85645 29.3678 10.6838 30.317 11.7704 30.5152C12.3423 32.2174 13.9115 33.3571 15.7172 33.3571C18.0161 33.3571 19.8868 31.4865 19.8868 29.1872V25.0378C22.3777 24.6259 23.9227 22.9682 24.5541 21.3743ZM19.8868 3.52681C19.8868 2.64253 20.6062 1.92306 21.4905 1.92306C22.3752 1.92306 23.0946 2.64253 23.0946 3.52681V5.77221C23.0946 7.59327 21.9024 9.05129 19.8868 10.6363V3.52681ZM11.1394 28.2251C11.1394 27.6466 11.6103 27.1756 12.1888 27.1756C12.7673 27.1756 13.2383 27.6466 13.2383 28.2251C13.2383 28.8036 12.7673 29.2745 12.1888 29.2745C11.6103 29.2745 11.1394 28.8036 11.1394 28.2251ZM18.6038 15.0298C16.8911 15.641 15.6056 17.204 15.4206 19.0765C15.3571 19.7185 15.418 20.3524 15.6023 20.961C15.7054 21.2998 16.0615 21.4918 16.4025 21.389C16.7413 21.2863 16.9329 20.928 16.8301 20.5892C16.695 20.1428 16.6506 19.6766 16.6976 19.2027C16.8147 18.016 17.5727 16.9761 18.6038 16.4346V23.8484C18.2331 23.8455 17.8403 23.8121 17.4263 23.7435C14.9019 23.3228 14.1648 21.5788 13.9493 20.5767C13.4813 18.3963 14.5091 15.902 16.3937 14.6459C17.1697 14.1287 17.9097 13.6353 18.6038 13.1555V15.0298ZM19.8868 23.7251V16.0507C19.9312 16.047 19.976 16.0437 20.0204 16.0411C21.1836 15.9769 22.2977 16.4948 23.0062 17.4147C23.7128 18.3335 23.8493 19.6697 23.3615 20.9019C22.8872 22.0982 21.7408 23.3371 19.8868 23.7251Z" fill="white"/>
<path d="M27.1413 6.41391H33.3588C33.7134 6.41391 34.0001 6.12649 34.0001 5.77226C34.0001 5.41803 33.7134 5.13062 33.3588 5.13062H27.1413C26.7867 5.13062 26.5 5.41803 26.5 5.77226C26.5 6.12649 26.7867 6.41391 27.1413 6.41391Z" fill="white"/>
<path d="M0.641646 6.41391H15.3437C15.6983 6.41391 15.985 6.12649 15.985 5.77226C15.985 5.41803 15.6983 5.13062 15.3437 5.13062H0.641646C0.287052 5.13062 0 5.41803 0 5.77226C0 6.12649 0.287052 6.41391 0.641646 6.41391Z" fill="white"/>
<path d="M33.3583 16.678H28.028C27.6734 16.678 27.3867 16.965 27.3867 17.3193C27.3867 17.6739 27.6734 17.9609 28.028 17.9609H33.3583C33.7129 17.9609 33.9996 17.6739 33.9996 17.3193C33.9996 16.965 33.7129 16.678 33.3583 16.678Z" fill="white"/>
<path d="M10.4025 17.3193C10.4025 16.965 10.1155 16.678 9.76088 16.678H0.641647C0.287052 16.678 0 16.965 0 17.3193C0 17.6739 0.287052 17.9609 0.641647 17.9609H9.76088C10.1155 17.9609 10.4025 17.6739 10.4025 17.3193Z" fill="white"/>
<path d="M33.3583 26.9421H22.9532C22.5986 26.9421 22.3115 27.2292 22.3115 27.5834C22.3115 27.938 22.5986 28.2251 22.9532 28.2251H33.3583C33.7129 28.2251 33.9996 27.938 33.9996 27.5834C33.9996 27.2292 33.7129 26.9421 33.3583 26.9421Z" fill="white"/>
<path d="M6.36507 26.9421H0.641647C0.287052 26.9421 0 27.2292 0 27.5834C0 27.938 0.287052 28.2251 0.641647 28.2251H6.36507C6.71967 28.2251 7.00672 27.938 7.00672 27.5834C7.00672 27.2292 6.71967 26.9421 6.36507 26.9421Z" fill="white"/>
</svg>
