<svg width="34" height="34" viewBox="0 0 34 34" fill="none" xmlns="http://www.w3.org/2000/svg">
<path d="M30.9643 13.9643H20.6429C20.3076 13.9643 20.0357 13.6924 20.0357 13.3571V3.03571C20.0357 1.35925 18.6765 0 17 0C15.3235 0 13.9643 1.35925 13.9643 3.03571V13.3571C13.9643 13.6924 13.6924 13.9643 13.3571 13.9643H3.03571C1.35925 13.9643 0 15.3235 0 17C0 18.6765 1.35925 20.0357 3.03571 20.0357H13.3571C13.6924 20.0357 13.9643 20.3076 13.9643 20.6429V30.9643C13.9643 32.6407 15.3235 34 17 34C18.6765 34 20.0357 32.6407 20.0357 30.9643V20.6429C20.0357 20.3076 20.3076 20.0357 20.6429 20.0357H30.9643C32.6407 20.0357 34 18.6765 34 17C34 15.3235 32.6407 13.9643 30.9643 13.9643Z" fill="white"/>
</svg>
