<svg width="34" height="34" viewBox="0 0 34 34" fill="none" xmlns="http://www.w3.org/2000/svg">
<path d="M33.243 14.118L29.2652 13.1418C29.0461 12.4445 28.7672 11.7672 28.4285 11.1098L30.4605 7.72305C30.6996 7.32461 30.6398 6.82656 30.3211 6.50781L27.4922 3.67891C27.1734 3.36016 26.6754 3.30039 26.277 3.53945L22.8902 5.57148C22.2328 5.23281 21.5555 4.95391 20.8582 4.73477L19.902 0.757031C19.7824 0.31875 19.384 0 18.9258 0H14.9414C14.4832 0 14.0848 0.31875 13.9652 0.757031L13.009 4.73477C12.3117 4.95391 11.6344 5.23281 10.977 5.57148L7.59023 3.53945C7.1918 3.30039 6.69375 3.36016 6.375 3.67891L3.54609 6.50781C3.22734 6.82656 3.16758 7.32461 3.40664 7.72305L5.43867 11.1098C5.1 11.7672 4.82109 12.4445 4.60195 13.1418L0.757031 14.118C0.31875 14.2176 0 14.616 0 15.0742V19.0586C0 19.5168 0.31875 19.9152 0.757031 20.0148L4.60195 20.991C4.82109 21.6883 5.1 22.3656 5.43867 23.023L3.40664 26.4098C3.16758 26.8082 3.22734 27.3062 3.54609 27.625L6.375 30.4539C6.69375 30.7727 7.1918 30.8324 7.59023 30.5934L10.977 28.5613C11.6344 28.9 12.3117 29.1789 13.009 29.398L13.9652 33.243C14.0848 33.6813 14.4832 34 14.9414 34H18.9258C19.384 34 19.7824 33.6813 19.902 33.243L20.8582 29.398C21.5555 29.1789 22.2328 28.9 22.8902 28.5613L26.277 30.5934C26.6754 30.8324 27.1734 30.7727 27.4922 30.4539L30.3211 27.625C30.6398 27.3062 30.6996 26.8082 30.4605 26.4098L28.4285 23.023C28.7672 22.3656 29.0461 21.6883 29.2652 20.991L33.243 20.0148C33.6813 19.9152 34 19.5168 34 19.0586V15.0742C34 14.616 33.6813 14.2176 33.243 14.118ZM16.9336 22.0469C14.1844 22.0469 11.9531 19.8156 11.9531 17.0664C11.9531 14.3172 14.1844 12.0859 16.9336 12.0859C19.6828 12.0859 21.9141 14.3172 21.9141 17.0664C21.9141 19.8156 19.6828 22.0469 16.9336 22.0469Z" fill="white"/>
</svg>
