<svg width="34" height="34" viewBox="0 0 34 34" fill="none" xmlns="http://www.w3.org/2000/svg">
<g clip-path="url(#clip0)">
<path d="M7.80636 15.5833H0.723004C0.332004 15.5833 0.0146484 15.9006 0.0146484 16.2916V33.2916C0.0146484 33.6825 0.332004 33.9999 0.723004 33.9999H7.80636C8.19736 33.9999 8.51472 33.6825 8.51472 33.2915V16.2915C8.51465 15.9005 8.19875 15.5833 7.80636 15.5833Z" fill="white"/>
<path d="M20.5281 0H13.4447C13.0537 0 12.7363 0.317355 12.7363 0.708355V33.2917C12.7363 33.6827 13.0537 34.0001 13.4447 34.0001H20.5281C20.9191 34.0001 21.2364 33.6827 21.2364 33.2917V0.708355C21.2364 0.317355 20.9191 0 20.5281 0Z" fill="white"/>
<path d="M33.2771 7.08325H26.1937C25.8027 7.08325 25.4854 7.40061 25.4854 7.79161V33.2916C25.4854 33.6826 25.8027 34 26.1937 34H33.2771C33.6681 34 33.9854 33.6826 33.9854 33.2916V7.79161C33.9854 7.40054 33.6681 7.08325 33.2771 7.08325Z" fill="white"/>
</g>
<defs>
<clipPath id="clip0">
<rect width="34" height="34" fill="white"/>
</clipPath>
</defs>
</svg>
